<svg width="16" height="17" viewBox="0 0 16 17" fill="none" xmlns="http://www.w3.org/2000/svg">
<path d="M3.33398 10.4997C2.71273 10.4997 2.4021 10.4997 2.15707 10.3982C1.83037 10.2629 1.5708 10.0033 1.43548 9.67659C1.33398 9.43156 1.33398 9.12093 1.33398 8.49967V3.96634C1.33398 3.2196 1.33398 2.84624 1.47931 2.56102C1.60714 2.31014 1.81111 2.10616 2.062 1.97833C2.34721 1.83301 2.72058 1.83301 3.46732 1.83301H8.00065C8.62191 1.83301 8.93253 1.83301 9.17756 1.9345C9.50427 2.06983 9.76383 2.32939 9.89916 2.6561C10.0007 2.90112 10.0007 3.21175 10.0007 3.83301M8.13398 15.1663H12.534C13.2807 15.1663 13.6541 15.1663 13.9393 15.021C14.1902 14.8932 14.3942 14.6892 14.522 14.4383C14.6673 14.1531 14.6673 13.7797 14.6673 13.033V8.63301C14.6673 7.88627 14.6673 7.5129 14.522 7.22769C14.3942 6.9768 14.1902 6.77283 13.9393 6.645C13.6541 6.49967 13.2807 6.49967 12.534 6.49967H8.13398C7.38725 6.49967 7.01388 6.49967 6.72866 6.645C6.47778 6.77283 6.27381 6.9768 6.14598 7.22769C6.00065 7.5129 6.00065 7.88627 6.00065 8.63301V13.033C6.00065 13.7797 6.00065 14.1531 6.14598 14.4383C6.27381 14.6892 6.47778 14.8932 6.72866 15.021C7.01388 15.1663 7.38725 15.1663 8.13398 15.1663Z" stroke="#FAFCFE" stroke-width="1.5" stroke-linecap="round" stroke-linejoin="round"/>
</svg>
