<svg width="144" height="24" viewBox="0 0 144 24" fill="none" xmlns="http://www.w3.org/2000/svg">
<path d="M63.8091 17.4546L63.7539 17.5271L63.7975 17.4292L63.8091 17.4546Z" fill="#001F58"/>
<path d="M52.6581 5.2002V5.21288L52.6523 5.2002H52.6581Z" fill="#001F58"/>
<path d="M52.6581 5.2002V5.21288L52.6523 5.2002H52.6581Z" fill="#001F58"/>
<path d="M31.9324 11.1958V11.3873L31.8882 11.3342L31.8574 11.2967L31.8865 11.2574L31.9324 11.1958Z" fill="#001F58"/>
<path d="M31.9317 11.2461V11.3403L31.8945 11.2956L31.9317 11.2461Z" fill="#001F58"/>
<path d="M90.5739 20.6181C87.3921 20.6163 84.8145 17.9331 84.8145 14.6247L84.8179 3.57568L88.9342 3.5775V5.19244L90.8161 5.19304L90.8143 9.47418H88.9319L88.9301 14.6259C88.9313 15.5708 89.6678 16.3357 90.5756 16.3369H91.3452L92.0695 20.6187H90.5739V20.6181Z" fill="white"/>
<path d="M99.5973 4.51904C95.1418 4.51723 91.5285 8.27335 91.5273 12.9079C91.5256 17.5425 95.1366 21.301 99.592 21.3022C104.047 21.3041 107.661 17.5479 107.662 12.9134C107.664 8.27879 104.053 4.52025 99.5973 4.51904ZM99.5932 17.0211C97.411 17.0205 95.6425 15.1796 95.643 12.9097C95.6436 10.6399 97.4134 8.80018 99.5955 8.80079C101.778 8.80139 103.546 10.6423 103.546 12.9122C103.545 15.182 101.775 17.0217 99.5932 17.0211Z" fill="white"/>
<path d="M69.2087 5.16381L60.7572 24L56.2158 23.9982L59.1634 17.429L53.6602 5.16381L58.2016 5.1626L61.4344 12.3673L64.6673 5.1626L69.2087 5.16381Z" fill="white"/>
<path d="M54.4801 9.48194H52.5594C50.7437 9.48496 49.2725 11.0171 49.2725 12.907V20.6137H45.1562V5.2002H49.2725V6.00132C50.2628 5.48959 51.3791 5.2014 52.5594 5.2002L52.5652 5.21288L54.4801 9.48194Z" fill="white"/>
<path d="M75.8004 4.51904C71.3449 4.51783 67.7305 8.27335 67.7305 12.9079V23.9884L71.8462 23.9896V12.9097C71.8473 10.6393 73.6171 8.80018 75.7992 8.80079C77.9814 8.80139 79.7499 10.6423 79.7494 12.9122C79.7482 15.182 77.9784 16.9003 75.7963 16.9003C75.2277 16.9003 74.7195 16.8193 74.2728 16.6683L72.6361 20.3156C73.584 20.802 74.6445 21.1168 75.7951 21.182C80.2442 21.434 83.8639 17.5485 83.8651 12.914C83.8668 8.27879 80.2558 4.52086 75.8004 4.51904Z" fill="white"/>
<path d="M37.0654 11.2949L44.1612 1.78467H38.9339L32.5384 10.356V1.78467H28.2578V20.6233H32.5384V12.1407L39.5635 20.6233H44.7908L37.0654 11.2949Z" fill="white"/>
<path d="M143.999 11.1638C143.998 17.0284 139.426 21.7808 133.789 21.7784C131.166 21.7772 128.774 20.7477 126.967 19.0566C127.996 17.8676 128.796 16.4599 129.295 14.909C130.351 16.2775 131.972 17.1541 133.79 17.1547C136.972 17.1559 139.553 14.4728 139.554 11.1626C139.555 7.85172 136.976 5.16739 133.794 5.16619C131.975 5.16558 130.354 6.04102 129.298 7.40886C128.799 5.85675 128 4.44843 126.972 3.25883C128.781 1.56896 131.172 0.541273 133.795 0.542482C139.433 0.544294 144.002 5.29971 143.999 11.1638Z" fill="white"/>
<path d="M128.755 11.139C128.755 11.9208 128.639 12.8711 128.508 13.4705C128.123 15.2292 127.308 16.8659 126.18 18.1854C124.31 20.3749 121.582 21.7548 118.544 21.7536C112.906 21.7518 108.338 16.9958 108.34 11.1317C108.342 5.26767 112.913 0.515278 118.551 0.51709C121.589 0.518299 124.316 1.90003 126.186 4.09075C127.125 5.19336 127.848 6.50017 128.284 7.93991L123.422 7.9381C122.401 6.2579 120.601 5.14261 118.549 5.1414C115.367 5.14019 112.786 7.8227 112.785 11.1335C112.784 14.4438 115.363 17.1281 118.545 17.1293C120.933 17.1305 122.982 15.6213 123.856 13.4693L118.558 13.4674L117.915 9.01775L128.552 9.02077C128.685 9.70529 128.755 10.4134 128.755 11.139Z" fill="#FFC211"/>
<path d="M25.9748 8.70863L20.6341 15.1575L15.2441 8.70863L20.6092 1.13477L25.9748 8.70863Z" fill="#FFC211"/>
<path d="M15.4965 21.3608L13.33 23.9762L9.42578 19.2619V14.0298L15.4965 21.3608Z" fill="#FFC211"/>
<path d="M19.7161 16.266L16.4159 20.2517L8.2664 10.411V17.8616L0.685547 8.70788L6.29975 0.784816L8.2664 0.564898V7.07965L13.3306 0L19.3781 0.674856L13.488 8.74534L19.7161 16.266Z" fill="#FFC211"/>
</svg>
